<svg version="1" xmlns="http://www.w3.org/2000/svg" width="1440" height="1440" viewBox="0 0 1080.000000 1080.000000"><path d="M530.4 336.4c-23.9 5.5-42.7 20.7-52.8 42.8-4.9 10.6-6.6 18.8-6.6 31 0 23.2 9.1 42.7 27.1 58.3 12.8 10.9 26.9 16.4 44.4 17.2 22.1 1 40.5-6 56.1-21.2 20.2-19.7 27.8-47.6 20.3-74.5-3.6-13.2-9.2-22.7-19.1-32.8-9.5-9.7-18-14.7-32.3-19.4-8-2.6-28.4-3.4-37.1-1.4zM368 631.1c-29.9 2.5-56.9 24.8-65.4 54-5.7 19.6-2.9 42.6 7.4 60.1 21.2 35.8 68 47.4 104.4 25.9 14.3-8.4 27.7-25.2 32.9-41.1 6.2-18.8 4.6-40.8-4.3-58-14.7-28.2-43-43.6-75-40.9zM698.7 634c-22 5.5-40.4 20.8-49.7 41.4-4.5 9.8-6.2 18.7-6.2 31.1 0 13.2 2.3 22.8 7.8 33.1 9.4 17.5 19.2 26.8 36.4 34.7 33.1 15.2 72 3.6 92.6-27.6 15.6-23.5 15.8-56.1.6-80.1-3.4-5.3-12.3-15-16.6-18.1-1.5-1.1-3.7-2.9-4.9-3.9-3.2-2.8-15.4-8.2-23.3-10.4-9.7-2.7-26.2-2.8-36.7-.2z"/></svg>